%TF.GenerationSoftware,KiCad,Pcbnew,9.0.2*%
%TF.CreationDate,2025-07-16T22:08:15-05:00*%
%TF.ProjectId,PCB,5043422e-6b69-4636-9164-5f7063625858,rev?*%
%TF.SameCoordinates,Original*%
%TF.FileFunction,Soldermask,Bot*%
%TF.FilePolarity,Negative*%
%FSLAX46Y46*%
G04 Gerber Fmt 4.6, Leading zero omitted, Abs format (unit mm)*
G04 Created by KiCad (PCBNEW 9.0.2) date 2025-07-16 22:08:15*
%MOMM*%
%LPD*%
G01*
G04 APERTURE LIST*
G04 Aperture macros list*
%AMRoundRect*
0 Rectangle with rounded corners*
0 $1 Rounding radius*
0 $2 $3 $4 $5 $6 $7 $8 $9 X,Y pos of 4 corners*
0 Add a 4 corners polygon primitive as box body*
4,1,4,$2,$3,$4,$5,$6,$7,$8,$9,$2,$3,0*
0 Add four circle primitives for the rounded corners*
1,1,$1+$1,$2,$3*
1,1,$1+$1,$4,$5*
1,1,$1+$1,$6,$7*
1,1,$1+$1,$8,$9*
0 Add four rect primitives between the rounded corners*
20,1,$1+$1,$2,$3,$4,$5,0*
20,1,$1+$1,$4,$5,$6,$7,0*
20,1,$1+$1,$6,$7,$8,$9,0*
20,1,$1+$1,$8,$9,$2,$3,0*%
G04 Aperture macros list end*
%ADD10R,1.700000X1.700000*%
%ADD11C,1.700000*%
%ADD12C,2.200000*%
%ADD13C,2.000000*%
%ADD14RoundRect,0.102000X-0.754000X-0.754000X0.754000X-0.754000X0.754000X0.754000X-0.754000X0.754000X0*%
%ADD15C,1.712000*%
%ADD16C,3.204000*%
%ADD17C,3.000000*%
%ADD18RoundRect,0.102000X-1.000000X-1.000000X1.000000X-1.000000X1.000000X1.000000X-1.000000X1.000000X0*%
%ADD19C,2.204000*%
G04 APERTURE END LIST*
D10*
%TO.C,J2*%
X149690000Y-99515000D03*
D11*
X149690000Y-102055000D03*
X149690000Y-104595000D03*
X149690000Y-107135000D03*
X149690000Y-109675000D03*
%TD*%
D12*
%TO.C,REF\u002A\u002A*%
X125000000Y-131000000D03*
%TD*%
%TO.C,*%
X185500000Y-53000000D03*
%TD*%
%TO.C,REF\u002A\u002A*%
X125000000Y-87000000D03*
%TD*%
D13*
%TO.C,U4*%
X186500000Y-70500000D03*
X186500000Y-56500000D03*
X163500000Y-70500000D03*
X163500000Y-56500000D03*
X163500000Y-67960000D03*
X163500000Y-59040000D03*
%TD*%
D14*
%TO.C,U2*%
X132380000Y-58095000D03*
D15*
X134920000Y-58095000D03*
X137460000Y-58095000D03*
X140000000Y-58095000D03*
D16*
X125190000Y-58595000D03*
X147190000Y-58595000D03*
X147190000Y-80595000D03*
X125190000Y-80595000D03*
%TD*%
D12*
%TO.C,*%
X124500000Y-53000000D03*
%TD*%
D17*
%TO.C,U1*%
X157220000Y-81960000D03*
X157220000Y-128910000D03*
X181730000Y-81960000D03*
X181730000Y-128910000D03*
D18*
X156800000Y-89920000D03*
D19*
X156800000Y-92460000D03*
X156800000Y-95000000D03*
X156800000Y-97540000D03*
X156800000Y-100080000D03*
X156800000Y-102620000D03*
X156800000Y-105160000D03*
X156800000Y-107700000D03*
X156800000Y-110240000D03*
X156800000Y-112780000D03*
X156800000Y-115320000D03*
X156800000Y-117860000D03*
X156800000Y-120400000D03*
X156800000Y-122940000D03*
X156800000Y-125480000D03*
X182200000Y-125480000D03*
X182200000Y-122940000D03*
X182200000Y-120400000D03*
X182200000Y-117860000D03*
X182200000Y-115320000D03*
X182200000Y-112780000D03*
X182200000Y-110240000D03*
X182200000Y-107700000D03*
X182200000Y-105160000D03*
X182200000Y-102620000D03*
X182200000Y-100080000D03*
X182200000Y-97540000D03*
X182200000Y-95000000D03*
X182200000Y-92460000D03*
X182200000Y-89920000D03*
%TD*%
M02*
