%TF.GenerationSoftware,KiCad,Pcbnew,9.0.2*%
%TF.CreationDate,2025-07-16T22:08:15-05:00*%
%TF.ProjectId,PCB,5043422e-6b69-4636-9164-5f7063625858,rev?*%
%TF.SameCoordinates,Original*%
%TF.FileFunction,Copper,L2,Bot*%
%TF.FilePolarity,Positive*%
%FSLAX46Y46*%
G04 Gerber Fmt 4.6, Leading zero omitted, Abs format (unit mm)*
G04 Created by KiCad (PCBNEW 9.0.2) date 2025-07-16 22:08:15*
%MOMM*%
%LPD*%
G01*
G04 APERTURE LIST*
%TA.AperFunction,ComponentPad*%
%ADD10R,1.700000X1.700000*%
%TD*%
%TA.AperFunction,ComponentPad*%
%ADD11C,1.700000*%
%TD*%
%TA.AperFunction,ComponentPad*%
%ADD12C,2.000000*%
%TD*%
%TA.AperFunction,ComponentPad*%
%ADD13R,1.508000X1.508000*%
%TD*%
%TA.AperFunction,ComponentPad*%
%ADD14C,1.508000*%
%TD*%
%TA.AperFunction,ComponentPad*%
%ADD15C,3.000000*%
%TD*%
%TA.AperFunction,ComponentPad*%
%ADD16R,2.000000X2.000000*%
%TD*%
%TA.AperFunction,Conductor*%
%ADD17C,0.500000*%
%TD*%
%TA.AperFunction,Conductor*%
%ADD18C,0.600000*%
%TD*%
%TA.AperFunction,Conductor*%
%ADD19C,1.000000*%
%TD*%
%TA.AperFunction,Conductor*%
%ADD20C,0.800000*%
%TD*%
G04 APERTURE END LIST*
D10*
%TO.P,J2,1,Pin_1*%
%TO.N,+3V3*%
X149690000Y-99515000D03*
D11*
%TO.P,J2,2,Pin_2*%
%TO.N,GND*%
X149690000Y-102055000D03*
%TO.P,J2,3,Pin_3*%
%TO.N,/SCL1*%
X149690000Y-104595000D03*
%TO.P,J2,4,Pin_4*%
%TO.N,/SDA1*%
X149690000Y-107135000D03*
%TO.P,J2,5,Pin_5*%
%TO.N,/DRDY1*%
X149690000Y-109675000D03*
%TD*%
D12*
%TO.P,U4,1,IN+*%
%TO.N,unconnected-(U4-IN+-Pad1)*%
X186500000Y-70500000D03*
%TO.P,U4,2,IN-*%
%TO.N,unconnected-(U4-IN--Pad2)*%
X186500000Y-56500000D03*
%TO.P,U4,3,OUT+*%
%TO.N,VBAT*%
X163500000Y-70500000D03*
%TO.P,U4,4,OUT-*%
%TO.N,GND*%
X163500000Y-56500000D03*
%TO.P,U4,5,B+*%
%TO.N,unconnected-(U4-B+-Pad5)*%
X163500000Y-67960000D03*
%TO.P,U4,6,B-*%
%TO.N,unconnected-(U4-B--Pad6)*%
X163500000Y-59040000D03*
%TD*%
D13*
%TO.P,U2,1,GND*%
%TO.N,GND*%
X132380000Y-58095000D03*
D14*
%TO.P,U2,2,VCC_IN*%
%TO.N,+3V3*%
X134920000Y-58095000D03*
%TO.P,U2,3,SCL*%
%TO.N,/SCL1*%
X137460000Y-58095000D03*
%TO.P,U2,4,SDA*%
%TO.N,/SDA1*%
X140000000Y-58095000D03*
D15*
%TO.P,U2,S1*%
%TO.N,N/C*%
X125190000Y-58595000D03*
%TO.P,U2,S2*%
X147190000Y-58595000D03*
%TO.P,U2,S3*%
X147190000Y-80595000D03*
%TO.P,U2,S4*%
X125190000Y-80595000D03*
%TD*%
D16*
%TO.P,U1,1,3V3*%
%TO.N,+3V3*%
X156800000Y-89920000D03*
D12*
%TO.P,U1,2,GND*%
%TO.N,GND*%
X156800000Y-92460000D03*
%TO.P,U1,3,D15*%
%TO.N,unconnected-(U1-D15-Pad3)*%
X156800000Y-95000000D03*
%TO.P,U1,4,D2*%
%TO.N,unconnected-(U1-D2-Pad4)*%
X156800000Y-97540000D03*
%TO.P,U1,5,D4*%
%TO.N,unconnected-(U1-D4-Pad5)*%
X156800000Y-100080000D03*
%TO.P,U1,6,RX2*%
%TO.N,unconnected-(U1-RX2-Pad6)*%
X156800000Y-102620000D03*
%TO.P,U1,7,TX2*%
%TO.N,unconnected-(U1-TX2-Pad7)*%
X156800000Y-105160000D03*
%TO.P,U1,8,D5*%
%TO.N,unconnected-(U1-D5-Pad8)*%
X156800000Y-107700000D03*
%TO.P,U1,9,D18*%
%TO.N,unconnected-(U1-D18-Pad9)*%
X156800000Y-110240000D03*
%TO.P,U1,10,D19*%
%TO.N,unconnected-(U1-D19-Pad10)*%
X156800000Y-112780000D03*
%TO.P,U1,11,D21*%
%TO.N,/SDA1*%
X156800000Y-115320000D03*
%TO.P,U1,12,RX0*%
%TO.N,unconnected-(U1-RX0-Pad12)*%
X156800000Y-117860000D03*
%TO.P,U1,13,TX0*%
%TO.N,unconnected-(U1-TX0-Pad13)*%
X156800000Y-120400000D03*
%TO.P,U1,14,D22*%
%TO.N,/SCL1*%
X156800000Y-122940000D03*
%TO.P,U1,15,D23*%
%TO.N,unconnected-(U1-D23-Pad15)*%
X156800000Y-125480000D03*
%TO.P,U1,16,EN*%
%TO.N,unconnected-(U1-EN-Pad16)*%
X182200000Y-125480000D03*
%TO.P,U1,17,VP*%
%TO.N,unconnected-(U1-VP-Pad17)*%
X182200000Y-122940000D03*
%TO.P,U1,18,VN*%
%TO.N,unconnected-(U1-VN-Pad18)*%
X182200000Y-120400000D03*
%TO.P,U1,19,D34*%
%TO.N,unconnected-(U1-D34-Pad19)*%
X182200000Y-117860000D03*
%TO.P,U1,20,D35*%
%TO.N,unconnected-(U1-D35-Pad20)*%
X182200000Y-115320000D03*
%TO.P,U1,21,D32*%
%TO.N,unconnected-(U1-D32-Pad21)*%
X182200000Y-112780000D03*
%TO.P,U1,22,D33*%
%TO.N,unconnected-(U1-D33-Pad22)*%
X182200000Y-110240000D03*
%TO.P,U1,23,D25*%
%TO.N,unconnected-(U1-D25-Pad23)*%
X182200000Y-107700000D03*
%TO.P,U1,24,D26*%
%TO.N,unconnected-(U1-D26-Pad24)*%
X182200000Y-105160000D03*
%TO.P,U1,25,D27*%
%TO.N,/DRDY1*%
X182200000Y-102620000D03*
%TO.P,U1,26,D14*%
%TO.N,unconnected-(U1-D14-Pad26)*%
X182200000Y-100080000D03*
%TO.P,U1,27,D12*%
%TO.N,unconnected-(U1-D12-Pad27)*%
X182200000Y-97540000D03*
%TO.P,U1,28,D13*%
%TO.N,unconnected-(U1-D13-Pad28)*%
X182200000Y-95000000D03*
%TO.P,U1,29,GND*%
%TO.N,GND*%
X182200000Y-92460000D03*
%TO.P,U1,30,VIN*%
%TO.N,VBAT*%
X182200000Y-89920000D03*
%TD*%
D17*
%TO.N,/DRDY1*%
X147405702Y-111959298D02*
X149690000Y-109675000D01*
X147405702Y-130405702D02*
X147405702Y-111959298D01*
X160219743Y-132794057D02*
X159726643Y-133287157D01*
X150287157Y-133287157D02*
X147405702Y-130405702D01*
X159726643Y-133287157D02*
X150287157Y-133287157D01*
X160219743Y-110780257D02*
X160219743Y-132794057D01*
X173405787Y-110000000D02*
X161000000Y-110000000D01*
X161000000Y-110000000D02*
X160219743Y-110780257D01*
X180785787Y-102620000D02*
X173405787Y-110000000D01*
X182200000Y-102620000D02*
X180785787Y-102620000D01*
D18*
%TO.N,/SDA1*%
X140000000Y-101905000D02*
X140000000Y-58095000D01*
X158694000Y-131306000D02*
X159271000Y-130729000D01*
X145230000Y-107135000D02*
X140000000Y-101905000D01*
X159271000Y-127260448D02*
X158441004Y-126430452D01*
X151690000Y-128595000D02*
X154401000Y-131306000D01*
X158441004Y-116161004D02*
X157600000Y-115320000D01*
X154401000Y-131306000D02*
X158694000Y-131306000D01*
X139690000Y-58095000D02*
X140000000Y-58095000D01*
X149690000Y-107135000D02*
X151690000Y-109135000D01*
X159271000Y-130729000D02*
X159271000Y-127260448D01*
X158441004Y-126430452D02*
X158441004Y-116161004D01*
X151690000Y-109135000D02*
X151690000Y-128595000D01*
X149690000Y-107135000D02*
X145230000Y-107135000D01*
D19*
%TO.N,GND*%
X149690000Y-102055000D02*
X150892081Y-102055000D01*
X150892081Y-102055000D02*
X153190000Y-99757081D01*
X159095000Y-52095000D02*
X163500000Y-56500000D01*
X136190000Y-52095000D02*
X159095000Y-52095000D01*
X132380000Y-55905000D02*
X136190000Y-52095000D01*
X153190000Y-95810000D02*
X156445000Y-92555000D01*
X160960000Y-92460000D02*
X182200000Y-92460000D01*
X156800000Y-92460000D02*
X159040000Y-92460000D01*
X159040000Y-92460000D02*
X160000000Y-91500000D01*
X160000000Y-91500000D02*
X160000000Y-56500000D01*
X160000000Y-56500000D02*
X163500000Y-56500000D01*
X160960000Y-92460000D02*
X160000000Y-91500000D01*
X153190000Y-99757081D02*
X153190000Y-95810000D01*
X132380000Y-58095000D02*
X132380000Y-55905000D01*
D20*
%TO.N,+3V3*%
X137285000Y-54000000D02*
X134920000Y-56365000D01*
X152690000Y-87095000D02*
X152690000Y-56595000D01*
X134920000Y-56365000D02*
X134920000Y-58095000D01*
X150095000Y-54000000D02*
X137285000Y-54000000D01*
X149690000Y-99515000D02*
X149690000Y-95935000D01*
X152690000Y-56595000D02*
X150095000Y-54000000D01*
X155610000Y-90015000D02*
X157505000Y-90015000D01*
X149690000Y-95935000D02*
X155610000Y-90015000D01*
X155610000Y-90015000D02*
X152690000Y-87095000D01*
X157505000Y-90015000D02*
X157600000Y-89920000D01*
D18*
%TO.N,/SCL1*%
X153382034Y-120575910D02*
X155746124Y-122940000D01*
X146690000Y-95595000D02*
X146690000Y-101595000D01*
X149690000Y-104595000D02*
X150190000Y-104595000D01*
X148677810Y-55582810D02*
X150690000Y-57595000D01*
X137460000Y-56325000D02*
X138202190Y-55582810D01*
X149690000Y-104595000D02*
X153382034Y-108287034D01*
X137460000Y-58095000D02*
X137460000Y-56325000D01*
X150690000Y-91595000D02*
X146690000Y-95595000D01*
X150690000Y-57595000D02*
X150690000Y-91595000D01*
X138202190Y-55582810D02*
X148677810Y-55582810D01*
X146690000Y-101595000D02*
X149690000Y-104595000D01*
X155746124Y-122940000D02*
X156800000Y-122940000D01*
X153382034Y-108287034D02*
X153382034Y-120575910D01*
D19*
%TO.N,VBAT*%
X186000000Y-86920000D02*
X183000000Y-89920000D01*
X163500000Y-70500000D02*
X169500000Y-76500000D01*
X186000000Y-76500000D02*
X186000000Y-86920000D01*
X169500000Y-76500000D02*
X186000000Y-76500000D01*
%TD*%
%TA.AperFunction,Conductor*%
%TO.N,GND*%
G36*
X188442539Y-51020185D02*
G01*
X188488294Y-51072989D01*
X188499500Y-51124500D01*
X188499500Y-55737584D01*
X188479815Y-55804623D01*
X188427011Y-55850378D01*
X188357853Y-55860322D01*
X188294297Y-55831297D01*
X188260939Y-55785037D01*
X188223726Y-55695197D01*
X188208164Y-55657627D01*
X188083599Y-55441873D01*
X187931938Y-55244224D01*
X187931933Y-55244218D01*
X187755781Y-55068066D01*
X187755774Y-55068060D01*
X187558126Y-54916400D01*
X187342376Y-54791837D01*
X187342361Y-54791830D01*
X187112207Y-54696498D01*
X186871561Y-54632017D01*
X186624575Y-54599501D01*
X186624570Y-54599500D01*
X186624565Y-54599500D01*
X186375435Y-54599500D01*
X186375429Y-54599500D01*
X186375424Y-54599501D01*
X186128438Y-54632017D01*
X185887792Y-54696498D01*
X185657638Y-54791830D01*
X185657623Y-54791837D01*
X185441873Y-54916400D01*
X185244225Y-55068060D01*
X185244218Y-55068066D01*
X185068066Y-55244218D01*
X185068060Y-55244225D01*
X184916400Y-55441873D01*
X184791837Y-55657623D01*
X184791830Y-55657638D01*
X184696498Y-55887792D01*
X184632017Y-56128438D01*
X184599501Y-56375424D01*
X184599500Y-56375435D01*
X184599500Y-56624558D01*
X184599501Y-56624575D01*
X184631018Y-56863976D01*
X184632018Y-56871565D01*
X184651678Y-56944936D01*
X184696498Y-57112207D01*
X184791830Y-57342361D01*
X184791837Y-57342376D01*
X184916400Y-57558126D01*
X185068060Y-57755774D01*
X185068066Y-57755781D01*
X185244218Y-57931933D01*
X185244225Y-57931939D01*
X185441873Y-58083599D01*
X185657623Y-58208162D01*
X185657638Y-58208169D01*
X185756825Y-58249253D01*
X185887793Y-58303502D01*
X186128435Y-58367982D01*
X186375435Y-58400500D01*
X186375442Y-58400500D01*
X186624558Y-58400500D01*
X186624565Y-58400500D01*
X186871565Y-58367982D01*
X187112207Y-58303502D01*
X187342373Y-58208164D01*
X187558127Y-58083599D01*
X187755776Y-57931938D01*
X187931938Y-57755776D01*
X188083599Y-57558127D01*
X188208164Y-57342373D01*
X188260939Y-57214962D01*
X188304780Y-57160559D01*
X188371074Y-57138494D01*
X188438773Y-57155773D01*
X188486384Y-57206910D01*
X188499500Y-57262415D01*
X188499500Y-69737584D01*
X188479815Y-69804623D01*
X188427011Y-69850378D01*
X188357853Y-69860322D01*
X188294297Y-69831297D01*
X188260939Y-69785037D01*
X188241283Y-69737584D01*
X188208164Y-69657627D01*
X188083599Y-69441873D01*
X187931938Y-69244224D01*
X187931933Y-69244218D01*
X187755781Y-69068066D01*
X187755774Y-69068060D01*
X187558126Y-68916400D01*
X187342376Y-68791837D01*
X187342361Y-68791830D01*
X187112207Y-68696498D01*
X186871561Y-68632017D01*
X186624575Y-68599501D01*
X186624570Y-68599500D01*
X186624565Y-68599500D01*
X186375435Y-68599500D01*
X186375429Y-68599500D01*
X186375424Y-68599501D01*
X186128438Y-68632017D01*
X185887792Y-68696498D01*
X185657638Y-68791830D01*
X185657623Y-68791837D01*
X185441873Y-68916400D01*
X185244225Y-69068060D01*
X185244218Y-69068066D01*
X185068066Y-69244218D01*
X185068060Y-69244225D01*
X184916400Y-69441873D01*
X184791837Y-69657623D01*
X184791830Y-69657638D01*
X184696498Y-69887792D01*
X184632017Y-70128438D01*
X184599501Y-70375424D01*
X184599500Y-70375441D01*
X184599500Y-70624558D01*
X184599501Y-70624575D01*
X184632017Y-70871561D01*
X184696498Y-71112207D01*
X184791830Y-71342361D01*
X184791837Y-71342376D01*
X184916400Y-71558126D01*
X185068060Y-71755774D01*
X185068066Y-71755781D01*
X185244218Y-71931933D01*
X185244225Y-71931939D01*
X185441873Y-72083599D01*
X185657623Y-72208162D01*
X185657638Y-72208169D01*
X185756825Y-72249253D01*
X185887793Y-72303502D01*
X186128435Y-72367982D01*
X186375435Y-72400500D01*
X186375442Y-72400500D01*
X186624558Y-72400500D01*
X186624565Y-72400500D01*
X186871565Y-72367982D01*
X187112207Y-72303502D01*
X187342373Y-72208164D01*
X187558127Y-72083599D01*
X187755776Y-71931938D01*
X187931938Y-71755776D01*
X188083599Y-71558127D01*
X188208164Y-71342373D01*
X188260939Y-71214962D01*
X188304780Y-71160559D01*
X188371074Y-71138494D01*
X188438773Y-71155773D01*
X188486384Y-71206910D01*
X188499500Y-71262415D01*
X188499500Y-134375500D01*
X188479815Y-134442539D01*
X188427011Y-134488294D01*
X188375500Y-134499500D01*
X180624000Y-134499500D01*
X180556961Y-134479815D01*
X180511206Y-134427011D01*
X180500000Y-134375500D01*
X180500000Y-130424091D01*
X180519685Y-130357052D01*
X180572489Y-130311297D01*
X180641647Y-130301353D01*
X180699484Y-130325714D01*
X180755388Y-130368611D01*
X180954112Y-130483344D01*
X180954117Y-130483346D01*
X180954123Y-130483349D01*
X181045480Y-130521190D01*
X181166113Y-130571158D01*
X181387762Y-130630548D01*
X181615266Y-130660500D01*
X181615273Y-130660500D01*
X181844727Y-130660500D01*
X181844734Y-130660500D01*
X182072238Y-130630548D01*
X182293887Y-130571158D01*
X182505888Y-130483344D01*
X182704612Y-130368611D01*
X182886661Y-130228919D01*
X182886665Y-130228914D01*
X182886670Y-130228911D01*
X183048911Y-130066670D01*
X183048914Y-130066665D01*
X183048919Y-130066661D01*
X183188611Y-129884612D01*
X183303344Y-129685888D01*
X183391158Y-129473887D01*
X183450548Y-129252238D01*
X183480500Y-129024734D01*
X183480500Y-128795266D01*
X183450548Y-128567762D01*
X183391158Y-128346113D01*
X183303344Y-128134112D01*
X183188611Y-127935388D01*
X183188608Y-127935385D01*
X183188607Y-127935382D01*
X183048918Y-127753338D01*
X183048911Y-127753330D01*
X182886670Y-127591089D01*
X182886665Y-127591085D01*
X182886661Y-127591081D01*
X182769776Y-127501391D01*
X182728576Y-127444966D01*
X182724421Y-127375219D01*
X182758634Y-127314299D01*
X182808690Y-127285798D01*
X182808355Y-127284810D01*
X182812192Y-127283505D01*
X182812207Y-127283502D01*
X183042373Y-127188164D01*
X183258127Y-127063599D01*
X183455776Y-126911938D01*
X183631938Y-126735776D01*
X183783599Y-126538127D01*
X183908164Y-126322373D01*
X184003502Y-126092207D01*
X184067982Y-125851565D01*
X184100500Y-125604565D01*
X184100500Y-125355435D01*
X184067982Y-125108435D01*
X184003502Y-124867793D01*
X183908164Y-124637627D01*
X183783599Y-124421873D01*
X183678946Y-124285486D01*
X183653752Y-124220317D01*
X183667790Y-124151872D01*
X183678946Y-124134514D01*
X183695260Y-124113251D01*
X183783599Y-123998127D01*
X183908164Y-123782373D01*
X184003502Y-123552207D01*
X184067982Y-123311565D01*
X184100500Y-123064565D01*
X184100500Y-122815435D01*
X184067982Y-122568435D01*
X184003502Y-122327793D01*
X183908164Y-122097627D01*
X183898854Y-122081502D01*
X183783599Y-121881873D01*
X183678946Y-121745486D01*
X183653752Y-121680317D01*
X183667790Y-121611872D01*
X183678946Y-121594514D01*
X183695260Y-121573251D01*
X183783599Y-121458127D01*
X183908164Y-121242373D01*
X184003502Y-121012207D01*
X184067982Y-120771565D01*
X184100500Y-120524565D01*
X184100500Y-120275435D01*
X184067982Y-120028435D01*
X184003502Y-119787793D01*
X183908164Y-119557627D01*
X183783599Y-119341873D01*
X183678946Y-119205486D01*
X183653752Y-119140317D01*
X183667790Y-119071872D01*
X183678946Y-119054514D01*
X183695260Y-119033251D01*
X183783599Y-118918127D01*
X183908164Y-118702373D01*
X184003502Y-118472207D01*
X184067982Y-118231565D01*
X184100500Y-117984565D01*
X184100500Y-117735435D01*
X184067982Y-117488435D01*
X184003502Y-117247793D01*
X183908164Y-117017627D01*
X183783599Y-116801873D01*
X183678946Y-116665486D01*
X183653752Y-116600317D01*
X183667790Y-116531872D01*
X183678946Y-116514514D01*
X183695260Y-116493251D01*
X183783599Y-116378127D01*
X183908164Y-116162373D01*
X184003502Y-115932207D01*
X184067982Y-115691565D01*
X184100500Y-115444565D01*
X184100500Y-115195435D01*
X184067982Y-114948435D01*
X184003502Y-114707793D01*
X183908164Y-114477627D01*
X183783599Y-114261873D01*
X183678946Y-114125486D01*
X183653752Y-114060317D01*
X183667790Y-113991872D01*
X183678946Y-113974514D01*
X183695260Y-113953251D01*
X183783599Y-113838127D01*
X183908164Y-113622373D01*
X184003502Y-113392207D01*
X184067982Y-113151565D01*
X184100500Y-112904565D01*
X184100500Y-112655435D01*
X184067982Y-112408435D01*
X184003502Y-112167793D01*
X183908164Y-111937627D01*
X183783599Y-111721873D01*
X183678946Y-111585486D01*
X183653752Y-111520317D01*
X183667790Y-111451872D01*
X183678946Y-111434514D01*
X183738959Y-111356303D01*
X183783599Y-111298127D01*
X183908164Y-111082373D01*
X184003502Y-110852207D01*
X184067982Y-110611565D01*
X184100500Y-110364565D01*
X184100500Y-110115435D01*
X184067982Y-109868435D01*
X184003502Y-109627793D01*
X183908164Y-109397627D01*
X183870714Y-109332762D01*
X183783599Y-109181873D01*
X183678946Y-109045486D01*
X183653752Y-108980317D01*
X183667790Y-108911872D01*
X183678946Y-108894514D01*
X183715661Y-108846666D01*
X183783599Y-108758127D01*
X183908164Y-108542373D01*
X184003502Y-108312207D01*
X184067982Y-108071565D01*
X184100500Y-107824565D01*
X184100500Y-107575435D01*
X184067982Y-107328435D01*
X184003502Y-107087793D01*
X183908164Y-106857627D01*
X183783599Y-106641873D01*
X183678946Y-106505486D01*
X183653752Y-106440317D01*
X183667790Y-106371872D01*
X183678946Y-106354514D01*
X183695260Y-106333251D01*
X183783599Y-106218127D01*
X183908164Y-106002373D01*
X184003502Y-105772207D01*
X184067982Y-105531565D01*
X184100500Y-105284565D01*
X184100500Y-105035435D01*
X184067982Y-104788435D01*
X184003502Y-104547793D01*
X183908164Y-104317627D01*
X183870714Y-104252762D01*
X183783599Y-104101873D01*
X183678946Y-103965486D01*
X183653752Y-103900317D01*
X183667790Y-103831872D01*
X183678946Y-103814514D01*
X183695260Y-103793251D01*
X183783599Y-103678127D01*
X183908164Y-103462373D01*
X184003502Y-103232207D01*
X184067982Y-102991565D01*
X184100500Y-102744565D01*
X184100500Y-102495435D01*
X184067982Y-102248435D01*
X184003502Y-102007793D01*
X183943115Y-101862007D01*
X183908169Y-101777638D01*
X183908162Y-101777623D01*
X183783599Y-101561873D01*
X183678946Y-101425486D01*
X183653752Y-101360317D01*
X183667790Y-101291872D01*
X183678946Y-101274514D01*
X183717941Y-101223694D01*
X183783599Y-101138127D01*
X183908164Y-100922373D01*
X184003502Y-100692207D01*
X184067982Y-100451565D01*
X184100500Y-100204565D01*
X184100500Y-99955435D01*
X184067982Y-99708435D01*
X184003502Y-99467793D01*
X183908164Y-99237627D01*
X183783599Y-99021873D01*
X183678946Y-98885486D01*
X183653752Y-98820317D01*
X183667790Y-98751872D01*
X183678946Y-98734514D01*
X183695260Y-98713251D01*
X183783599Y-98598127D01*
X183908164Y-98382373D01*
X184003502Y-98152207D01*
X184067982Y-97911565D01*
X184100500Y-97664565D01*
X184100500Y-97415435D01*
X184067982Y-97168435D01*
X184003502Y-96927793D01*
X183908164Y-96697627D01*
X183783599Y-96481873D01*
X183678946Y-96345486D01*
X183653752Y-96280317D01*
X183667790Y-96211872D01*
X183678946Y-96194514D01*
X183717994Y-96143625D01*
X183783599Y-96058127D01*
X183908164Y-95842373D01*
X184003502Y-95612207D01*
X184067982Y-95371565D01*
X184100500Y-95124565D01*
X184100500Y-94875435D01*
X184067982Y-94628435D01*
X184003502Y-94387793D01*
X183908164Y-94157627D01*
X183783599Y-93941873D01*
X183631938Y-93744224D01*
X183631933Y-93744218D01*
X183455781Y-93568066D01*
X183455774Y-93568060D01*
X183418878Y-93539749D01*
X183377675Y-93483322D01*
X183373520Y-93413576D01*
X183394046Y-93368487D01*
X183482914Y-93246171D01*
X183590102Y-93035802D01*
X183663065Y-92811247D01*
X183700000Y-92578052D01*
X183700000Y-92341947D01*
X183663065Y-92108752D01*
X183590102Y-91884197D01*
X183482914Y-91673828D01*
X183394046Y-91551512D01*
X183370566Y-91485705D01*
X183386391Y-91417651D01*
X183418876Y-91380251D01*
X183455776Y-91351938D01*
X183630181Y-91177532D01*
X183661558Y-91154736D01*
X183734022Y-91117815D01*
X183912364Y-90988242D01*
X186905296Y-87995308D01*
X186905303Y-87995303D01*
X186912363Y-87988243D01*
X186912365Y-87988242D01*
X187068242Y-87832365D01*
X187197815Y-87654022D01*
X187297895Y-87457606D01*
X187366015Y-87247951D01*
X187374029Y-87197352D01*
X187400501Y-87030221D01*
X187400501Y-86809778D01*
X187400501Y-86805377D01*
X187400500Y-86805362D01*
X187400500Y-76389778D01*
X187366015Y-76172049D01*
X187297895Y-75962394D01*
X187297895Y-75962393D01*
X187263237Y-75894375D01*
X187197815Y-75765978D01*
X187181260Y-75743192D01*
X187068247Y-75587641D01*
X187068243Y-75587636D01*
X186912363Y-75431756D01*
X186912358Y-75431752D01*
X186734025Y-75302187D01*
X186734024Y-75302186D01*
X186734022Y-75302185D01*
X186671096Y-75270122D01*
X186537606Y-75202104D01*
X186537603Y-75202103D01*
X186327952Y-75133985D01*
X186219086Y-75116742D01*
X186110222Y-75099500D01*
X186110221Y-75099500D01*
X170131469Y-75099500D01*
X170064430Y-75079815D01*
X170043788Y-75063181D01*
X165436619Y-70456012D01*
X165403134Y-70394689D01*
X165400565Y-70376430D01*
X165400500Y-70375441D01*
X165400500Y-70375435D01*
X165367982Y-70128435D01*
X165303502Y-69887793D01*
X165208166Y-69657633D01*
X165208162Y-69657623D01*
X165083599Y-69441873D01*
X164978946Y-69305486D01*
X164953752Y-69240317D01*
X164967790Y-69171872D01*
X164978946Y-69154514D01*
X164995260Y-69133251D01*
X165083599Y-69018127D01*
X165208164Y-68802373D01*
X165303502Y-68572207D01*
X165367982Y-68331565D01*
X165400500Y-68084565D01*
X165400500Y-67835435D01*
X165367982Y-67588435D01*
X165303502Y-67347793D01*
X165208164Y-67117627D01*
X165083599Y-66901873D01*
X164931938Y-66704224D01*
X164931933Y-66704218D01*
X164755781Y-66528066D01*
X164755774Y-66528060D01*
X164558126Y-66376400D01*
X164342376Y-66251837D01*
X164342361Y-66251830D01*
X164112207Y-66156498D01*
X163871561Y-66092017D01*
X163624575Y-66059501D01*
X163624570Y-66059500D01*
X163624565Y-66059500D01*
X163375435Y-66059500D01*
X163375429Y-66059500D01*
X163375424Y-66059501D01*
X163128438Y-66092017D01*
X162887792Y-66156498D01*
X162657638Y-66251830D01*
X162657623Y-66251837D01*
X162441873Y-66376400D01*
X162244225Y-66528060D01*
X162244218Y-66528066D01*
X162068066Y-66704218D01*
X162068060Y-66704225D01*
X161916400Y-66901873D01*
X161791837Y-67117623D01*
X161791830Y-67117638D01*
X161696498Y-67347792D01*
X161632017Y-67588438D01*
X161599501Y-67835424D01*
X161599500Y-67835441D01*
X161599500Y-68084558D01*
X161599501Y-68084575D01*
X161632017Y-68331561D01*
X161696498Y-68572207D01*
X161791830Y-68802361D01*
X161791837Y-68802376D01*
X161916400Y-69018126D01*
X162021053Y-69154514D01*
X162046247Y-69219683D01*
X162032208Y-69288128D01*
X162021053Y-69305486D01*
X161916400Y-69441873D01*
X161791837Y-69657623D01*
X161791830Y-69657638D01*
X161696498Y-69887792D01*
X161632017Y-70128438D01*
X161599501Y-70375424D01*
X161599500Y-70375441D01*
X161599500Y-70624558D01*
X161599501Y-70624575D01*
X161632017Y-70871561D01*
X161696498Y-71112207D01*
X161791830Y-71342361D01*
X161791837Y-71342376D01*
X161916400Y-71558126D01*
X162068060Y-71755774D01*
X162068066Y-71755781D01*
X162244218Y-71931933D01*
X162244225Y-71931939D01*
X162441873Y-72083599D01*
X162657623Y-72208162D01*
X162657638Y-72208169D01*
X162756825Y-72249253D01*
X162887793Y-72303502D01*
X163128435Y-72367982D01*
X163375435Y-72400500D01*
X163375445Y-72400500D01*
X163376429Y-72400565D01*
X163376710Y-72400668D01*
X163379459Y-72401030D01*
X163379378Y-72401644D01*
X163442040Y-72424585D01*
X163456013Y-72436619D01*
X168431757Y-77412364D01*
X168587636Y-77568243D01*
X168587641Y-77568247D01*
X168743192Y-77681260D01*
X168765978Y-77697815D01*
X168894375Y-77763237D01*
X168962393Y-77797895D01*
X168962396Y-77797896D01*
X169067221Y-77831955D01*
X169172049Y-77866015D01*
X169389778Y-77900500D01*
X184475500Y-77900500D01*
X184542539Y-77920185D01*
X184588294Y-77972989D01*
X184599500Y-78024500D01*
X184599500Y-86288531D01*
X184579815Y-86355570D01*
X184563181Y-86376212D01*
X182871259Y-88068133D01*
X182809936Y-88101618D01*
X182751485Y-88100227D01*
X182571563Y-88052017D01*
X182324575Y-88019501D01*
X182324570Y-88019500D01*
X182324565Y-88019500D01*
X182075435Y-88019500D01*
X182075429Y-88019500D01*
X182075424Y-88019501D01*
X181828438Y-88052017D01*
X181587792Y-88116498D01*
X181357638Y-88211830D01*
X181357623Y-88211837D01*
X181141873Y-88336400D01*
X180944225Y-88488060D01*
X180944218Y-88488066D01*
X180768066Y-88664218D01*
X180768060Y-88664225D01*
X180616400Y-88861873D01*
X180491837Y-89077623D01*
X180491830Y-89077638D01*
X180396498Y-89307792D01*
X180332017Y-89548438D01*
X180299501Y-89795424D01*
X180299500Y-89795441D01*
X180299500Y-90044558D01*
X180299501Y-90044575D01*
X180332017Y-90291561D01*
X180396498Y-90532207D01*
X180491830Y-90762361D01*
X180491837Y-90762376D01*
X180616400Y-90978126D01*
X180768060Y-91175774D01*
X180768066Y-91175781D01*
X180944218Y-91351933D01*
X180944223Y-91351937D01*
X180981120Y-91380249D01*
X181022324Y-91436677D01*
X181026479Y-91506423D01*
X181005953Y-91551511D01*
X180917087Y-91673825D01*
X180809897Y-91884197D01*
X180736934Y-92108752D01*
X180700000Y-92341947D01*
X180700000Y-92578052D01*
X180736934Y-92811247D01*
X180809897Y-93035802D01*
X180917087Y-93246174D01*
X181005953Y-93368488D01*
X181029433Y-93434294D01*
X181013608Y-93502348D01*
X180981122Y-93539748D01*
X180944228Y-93568058D01*
X180944218Y-93568066D01*
X180768066Y-93744218D01*
X180768060Y-93744225D01*
X180616400Y-93941873D01*
X180491837Y-94157623D01*
X180491830Y-94157638D01*
X180396498Y-94387792D01*
X180332017Y-94628438D01*
X180299501Y-94875424D01*
X180299500Y-94875435D01*
X180299500Y-95124558D01*
X180299501Y-95124575D01*
X180332017Y-95371561D01*
X180396498Y-95612207D01*
X180491830Y-95842361D01*
X180491837Y-95842376D01*
X180616400Y-96058126D01*
X180721053Y-96194514D01*
X180746247Y-96259683D01*
X180732208Y-96328128D01*
X180721053Y-96345486D01*
X180616400Y-96481873D01*
X180491837Y-96697623D01*
X180491830Y-96697638D01*
X180396498Y-96927792D01*
X180332017Y-97168438D01*
X180299501Y-97415424D01*
X180299500Y-97415441D01*
X180299500Y-97664558D01*
X180299501Y-97664575D01*
X180332017Y-97911561D01*
X180396498Y-98152207D01*
X180491830Y-98382361D01*
X180491837Y-98382376D01*
X180616400Y-98598126D01*
X180721053Y-98734514D01*
X180746247Y-98799683D01*
X180732208Y-98868128D01*
X180721053Y-98885486D01*
X180616400Y-99021873D01*
X180491837Y-99237623D01*
X180491830Y-99237638D01*
X180396498Y-99467792D01*
X180332017Y-99708438D01*
X180299501Y-99955424D01*
X180299500Y-99955441D01*
X180299500Y-100204558D01*
X180299501Y-100204575D01*
X180332017Y-100451561D01*
X180396498Y-100692207D01*
X180491830Y-100922361D01*
X180491837Y-100922376D01*
X180616400Y-101138126D01*
X180721053Y-101274513D01*
X180731092Y-101300482D01*
X180744147Y-101325079D01*
X180743517Y-101332621D01*
X180746247Y-101339682D01*
X180740652Y-101366960D01*
X180738337Y-101394707D01*
X180733019Y-101404177D01*
X180732209Y-101408127D01*
X180721056Y-101425481D01*
X180716299Y-101431681D01*
X180659873Y-101472886D01*
X180637319Y-101478672D01*
X180516382Y-101497828D01*
X180516372Y-101497830D01*
X180344150Y-101553787D01*
X180344147Y-101553788D01*
X180182789Y-101636006D01*
X180036292Y-101742441D01*
X180036287Y-101742445D01*
X179908231Y-101870502D01*
X172965553Y-108813181D01*
X172904230Y-108846666D01*
X172877872Y-108849500D01*
X161095681Y-108849500D01*
X161095657Y-108849499D01*
X161090546Y-108849499D01*
X160909454Y-108849499D01*
X160849833Y-108858942D01*
X160730589Y-108877829D01*
X160558363Y-108933787D01*
X160558360Y-108933788D01*
X160397002Y-109016006D01*
X160250505Y-109122441D01*
X160250500Y-109122445D01*
X159342190Y-110030755D01*
X159287889Y-110105494D01*
X159247011Y-110161760D01*
X159235747Y-110177262D01*
X159153531Y-110338617D01*
X159153530Y-110338620D01*
X159097572Y-110510846D01*
X159069242Y-110689712D01*
X159069242Y-110875913D01*
X159069243Y-110875938D01*
X159069243Y-114792117D01*
X159049558Y-114859156D01*
X158996754Y-114904911D01*
X158927596Y-114914855D01*
X158864040Y-114885830D01*
X158857562Y-114879798D01*
X158562921Y-114585157D01*
X158536041Y-114544928D01*
X158508169Y-114477638D01*
X158508162Y-114477623D01*
X158383599Y-114261873D01*
X158278946Y-114125486D01*
X158253752Y-114060317D01*
X158267790Y-113991872D01*
X158278946Y-113974514D01*
X158295260Y-113953251D01*
X158383599Y-113838127D01*
X158508164Y-113622373D01*
X158603502Y-113392207D01*
X158667982Y-113151565D01*
X158700500Y-112904565D01*
X158700500Y-112655435D01*
X158667982Y-112408435D01*
X158603502Y-112167793D01*
X158508164Y-111937627D01*
X158383599Y-111721873D01*
X158278946Y-111585486D01*
X158253752Y-111520317D01*
X158267790Y-111451872D01*
X158278946Y-111434514D01*
X158338959Y-111356303D01*
X158383599Y-111298127D01*
X158508164Y-111082373D01*
X158603502Y-110852207D01*
X158667982Y-110611565D01*
X158700500Y-110364565D01*
X158700500Y-110115435D01*
X158667982Y-109868435D01*
X158603502Y-109627793D01*
X158508164Y-109397627D01*
X158470714Y-109332762D01*
X158383599Y-109181873D01*
X158278946Y-109045486D01*
X158253752Y-108980317D01*
X158267790Y-108911872D01*
X158278946Y-108894514D01*
X158315661Y-108846666D01*
X158383599Y-108758127D01*
X158508164Y-108542373D01*
X158603502Y-108312207D01*
X158667982Y-108071565D01*
X158700500Y-107824565D01*
X158700500Y-107575435D01*
X158667982Y-107328435D01*
X158603502Y-107087793D01*
X158508164Y-106857627D01*
X158383599Y-106641873D01*
X158278946Y-106505486D01*
X158253752Y-106440317D01*
X158267790Y-106371872D01*
X158278946Y-106354514D01*
X158295260Y-106333251D01*
X158383599Y-106218127D01*
X158508164Y-106002373D01*
X158603502Y-105772207D01*
X158667982Y-105531565D01*
X158700500Y-105284565D01*
X158700500Y-105035435D01*
X158667982Y-104788435D01*
X158603502Y-104547793D01*
X158508164Y-104317627D01*
X158470714Y-104252762D01*
X158383599Y-104101873D01*
X158278946Y-103965486D01*
X158253752Y-103900317D01*
X158267790Y-103831872D01*
X158278946Y-103814514D01*
X158295260Y-103793251D01*
X158383599Y-103678127D01*
X158508164Y-103462373D01*
X158603502Y-103232207D01*
X158667982Y-102991565D01*
X158700500Y-102744565D01*
X158700500Y-102495435D01*
X158667982Y-102248435D01*
X158603502Y-102007793D01*
X158543115Y-101862007D01*
X158508169Y-101777638D01*
X158508162Y-101777623D01*
X158383599Y-101561873D01*
X158278946Y-101425486D01*
X158253752Y-101360317D01*
X158267790Y-101291872D01*
X158278946Y-101274514D01*
X158317941Y-101223694D01*
X158383599Y-101138127D01*
X158508164Y-100922373D01*
X158603502Y-100692207D01*
X158667982Y-100451565D01*
X158700500Y-100204565D01*
X158700500Y-99955435D01*
X158667982Y-99708435D01*
X158603502Y-99467793D01*
X158508164Y-99237627D01*
X158383599Y-99021873D01*
X158278946Y-98885486D01*
X158253752Y-98820317D01*
X158267790Y-98751872D01*
X158278946Y-98734514D01*
X158295260Y-98713251D01*
X158383599Y-98598127D01*
X158508164Y-98382373D01*
X158603502Y-98152207D01*
X158667982Y-97911565D01*
X158700500Y-97664565D01*
X158700500Y-97415435D01*
X158667982Y-97168435D01*
X158603502Y-96927793D01*
X158508164Y-96697627D01*
X158383599Y-96481873D01*
X158278946Y-96345486D01*
X158253752Y-96280317D01*
X158267790Y-96211872D01*
X158278946Y-96194514D01*
X158317994Y-96143625D01*
X158383599Y-96058127D01*
X158508164Y-95842373D01*
X158603502Y-95612207D01*
X158667982Y-95371565D01*
X158700500Y-95124565D01*
X158700500Y-94875435D01*
X158667982Y-94628435D01*
X158603502Y-94387793D01*
X158508164Y-94157627D01*
X158383599Y-93941873D01*
X158231938Y-93744224D01*
X158231933Y-93744218D01*
X158055781Y-93568066D01*
X158055774Y-93568060D01*
X158018878Y-93539749D01*
X157977675Y-93483322D01*
X157973520Y-93413576D01*
X157994046Y-93368487D01*
X158082914Y-93246171D01*
X158190102Y-93035802D01*
X158263065Y-92811247D01*
X158300000Y-92578052D01*
X158300000Y-92341947D01*
X158263065Y-92108752D01*
X158190102Y-91884196D01*
X158184786Y-91873762D01*
X158171891Y-91805093D01*
X158198168Y-91740353D01*
X158238975Y-91706985D01*
X158293149Y-91679383D01*
X158440257Y-91560257D01*
X158559383Y-91413149D01*
X158645320Y-91244488D01*
X158694312Y-91061645D01*
X158700500Y-90983021D01*
X158700499Y-90654514D01*
X158714013Y-90598222D01*
X158805220Y-90419218D01*
X158868477Y-90224535D01*
X158900500Y-90022352D01*
X158900500Y-89817649D01*
X158868477Y-89615466D01*
X158805220Y-89420782D01*
X158714013Y-89241778D01*
X158700499Y-89185485D01*
X158700499Y-88856989D01*
X158700498Y-88856970D01*
X158694312Y-88778356D01*
X158663731Y-88664225D01*
X158645320Y-88595512D01*
X158590571Y-88488060D01*
X158559385Y-88426853D01*
X158497555Y-88350500D01*
X158440257Y-88279743D01*
X158353958Y-88209859D01*
X158293146Y-88160614D01*
X158167868Y-88096783D01*
X158124488Y-88074680D01*
X158039911Y-88052018D01*
X157941643Y-88025687D01*
X157869736Y-88020028D01*
X157863021Y-88019500D01*
X157863020Y-88019500D01*
X155736989Y-88019500D01*
X155736970Y-88019501D01*
X155658355Y-88025687D01*
X155658353Y-88025688D01*
X155570965Y-88049102D01*
X155501115Y-88047438D01*
X155451193Y-88017008D01*
X154026819Y-86592634D01*
X153993334Y-86531311D01*
X153990500Y-86504953D01*
X153990500Y-81845258D01*
X155469500Y-81845258D01*
X155469500Y-82074741D01*
X155485608Y-82197084D01*
X155499452Y-82302238D01*
X155558842Y-82523887D01*
X155646650Y-82735876D01*
X155646657Y-82735890D01*
X155761392Y-82934617D01*
X155901081Y-83116661D01*
X155901089Y-83116670D01*
X156063330Y-83278911D01*
X156063338Y-83278918D01*
X156245382Y-83418607D01*
X156245385Y-83418608D01*
X156245388Y-83418611D01*
X156444112Y-83533344D01*
X156444117Y-83533346D01*
X156444123Y-83533349D01*
X156535480Y-83571190D01*
X156656113Y-83621158D01*
X156877762Y-83680548D01*
X157105266Y-83710500D01*
X157105273Y-83710500D01*
X157334727Y-83710500D01*
X157334734Y-83710500D01*
X157562238Y-83680548D01*
X157783887Y-83621158D01*
X157995888Y-83533344D01*
X158194612Y-83418611D01*
X158376661Y-83278919D01*
X158376665Y-83278914D01*
X158376670Y-83278911D01*
X158538911Y-83116670D01*
X158538914Y-83116665D01*
X158538919Y-83116661D01*
X158678611Y-82934612D01*
X158793344Y-82735888D01*
X158881158Y-82523887D01*
X158940548Y-82302238D01*
X158970500Y-82074734D01*
X158970500Y-81845266D01*
X158970499Y-81845258D01*
X179979500Y-81845258D01*
X179979500Y-82074741D01*
X179995608Y-82197084D01*
X180009452Y-82302238D01*
X180068842Y-82523887D01*
X180156650Y-82735876D01*
X180156657Y-82735890D01*
X180271392Y-82934617D01*
X180411081Y-83116661D01*
X180411089Y-83116670D01*
X180573330Y-83278911D01*
X180573338Y-83278918D01*
X180755382Y-83418607D01*
X180755385Y-83418608D01*
X180755388Y-83418611D01*
X180954112Y-83533344D01*
X180954117Y-83533346D01*
X180954123Y-83533349D01*
X181045480Y-83571190D01*
X181166113Y-83621158D01*
X181387762Y-83680548D01*
X181615266Y-83710500D01*
X181615273Y-83710500D01*
X181844727Y-83710500D01*
X181844734Y-83710500D01*
X182072238Y-83680548D01*
X182293887Y-83621158D01*
X182505888Y-83533344D01*
X182704612Y-83418611D01*
X182886661Y-83278919D01*
X182886665Y-83278914D01*
X182886670Y-83278911D01*
X183048911Y-83116670D01*
X183048914Y-83116665D01*
X183048919Y-83116661D01*
X183188611Y-82934612D01*
X183303344Y-82735888D01*
X183391158Y-82523887D01*
X183450548Y-82302238D01*
X183480500Y-82074734D01*
X183480500Y-81845266D01*
X183450548Y-81617762D01*
X183391158Y-81396113D01*
X183303344Y-81184112D01*
X183188611Y-80985388D01*
X183188608Y-80985385D01*
X183188607Y-80985382D01*
X183048918Y-80803338D01*
X183048911Y-80803330D01*
X182886670Y-80641089D01*
X182886661Y-80641081D01*
X182704617Y-80501392D01*
X182505890Y-80386657D01*
X182505876Y-80386650D01*
X182293887Y-80298842D01*
X182072238Y-80239452D01*
X182034215Y-80234446D01*
X181844741Y-80209500D01*
X181844734Y-80209500D01*
X181615266Y-80209500D01*
X181615258Y-80209500D01*
X181398715Y-80238009D01*
X181387762Y-80239452D01*
X181294076Y-80264554D01*
X181166112Y-80298842D01*
X180954123Y-80386650D01*
X180954109Y-80386657D01*
X180755382Y-80501392D01*
X180573338Y-80641081D01*
X180411081Y-80803338D01*
X180271392Y-80985382D01*
X180156657Y-81184109D01*
X180156650Y-81184123D01*
X180068842Y-81396112D01*
X180009453Y-81617759D01*
X180009451Y-81617770D01*
X179979500Y-81845258D01*
X158970499Y-81845258D01*
X158940548Y-81617762D01*
X158881158Y-81396113D01*
X158793344Y-81184112D01*
X158678611Y-80985388D01*
X158678608Y-80985385D01*
X158678607Y-80985382D01*
X158538918Y-80803338D01*
X158538911Y-80803330D01*
X158376670Y-80641089D01*
X158376661Y-80641081D01*
X158194617Y-80501392D01*
X157995890Y-80386657D01*
X157995876Y-80386650D01*
X157783887Y-80298842D01*
X157562238Y-80239452D01*
X157524215Y-80234446D01*
X157334741Y-80209500D01*
X157334734Y-80209500D01*
X157105266Y-80209500D01*
X157105258Y-80209500D01*
X156888715Y-80238009D01*
X156877762Y-80239452D01*
X156784076Y-80264554D01*
X156656112Y-80298842D01*
X156444123Y-80386650D01*
X156444109Y-80386657D01*
X156245382Y-80501392D01*
X156063338Y-80641081D01*
X155901081Y-80803338D01*
X155761392Y-80985382D01*
X155646657Y-81184109D01*
X155646650Y-81184123D01*
X155558842Y-81396112D01*
X155499453Y-81617759D01*
X155499451Y-81617770D01*
X155469500Y-81845258D01*
X153990500Y-81845258D01*
X153990500Y-58915441D01*
X161599500Y-58915441D01*
X161599500Y-59164558D01*
X161599501Y-59164575D01*
X161632017Y-59411561D01*
X161696498Y-59652207D01*
X161791830Y-59882361D01*
X161791837Y-59882376D01*
X161916400Y-60098126D01*
X162068060Y-60295774D01*
X162068066Y-60295781D01*
X162244218Y-60471933D01*
X162244225Y-60471939D01*
X162441873Y-60623599D01*
X162657623Y-60748162D01*
X162657638Y-60748169D01*
X162756825Y-60789253D01*
X162887793Y-60843502D01*
X163128435Y-60907982D01*
X163375435Y-60940500D01*
X163375442Y-60940500D01*
X163624558Y-60940500D01*
X163624565Y-60940500D01*
X163871565Y-60907982D01*
X164112207Y-60843502D01*
X164342373Y-60748164D01*
X164558127Y-60623599D01*
X164755776Y-60471938D01*
X164931938Y-60295776D01*
X165083599Y-60098127D01*
X165208164Y-59882373D01*
X165303502Y-59652207D01*
X165367982Y-59411565D01*
X165400500Y-59164565D01*
X165400500Y-58915435D01*
X165367982Y-58668435D01*
X165303502Y-58427793D01*
X165208164Y-58197627D01*
X165083599Y-57981873D01*
X164931938Y-57784224D01*
X164931933Y-57784218D01*
X164755781Y-57608066D01*
X164755774Y-57608060D01*
X164718878Y-57579749D01*
X164677675Y-57523322D01*
X164673520Y-57453576D01*
X164694046Y-57408487D01*
X164782914Y-57286171D01*
X164890102Y-57075802D01*
X164963065Y-56851247D01*
X165000000Y-56618052D01*
X165000000Y-56381947D01*
X164963065Y-56148752D01*
X164890102Y-55924197D01*
X164782914Y-55713828D01*
X164722658Y-55630894D01*
X164722658Y-55630893D01*
X163982962Y-56370589D01*
X163965925Y-56307007D01*
X163900099Y-56192993D01*
X163807007Y-56099901D01*
X163692993Y-56034075D01*
X163629409Y-56017037D01*
X164369105Y-55277340D01*
X164369104Y-55277338D01*
X164286174Y-55217087D01*
X164075802Y-55109897D01*
X163851247Y-55036934D01*
X163851248Y-55036934D01*
X163618052Y-55000000D01*
X163381948Y-55000000D01*
X163148752Y-55036934D01*
X162924197Y-55109897D01*
X162713830Y-55217084D01*
X162630894Y-55277340D01*
X163370591Y-56017037D01*
X163307007Y-56034075D01*
X163192993Y-56099901D01*
X163099901Y-56192993D01*
X163034075Y-56307007D01*
X163017037Y-56370591D01*
X162277340Y-55630894D01*
X162217084Y-55713830D01*
X162109897Y-55924197D01*
X162036934Y-56148752D01*
X162000000Y-56381947D01*
X162000000Y-56618052D01*
X162036934Y-56851247D01*
X162109897Y-57075802D01*
X162217087Y-57286174D01*
X162305953Y-57408488D01*
X162329433Y-57474294D01*
X162313608Y-57542348D01*
X162281122Y-57579748D01*
X162244228Y-57608058D01*
X162244218Y-57608066D01*
X162068066Y-57784218D01*
X162068060Y-57784225D01*
X161916400Y-57981873D01*
X161791837Y-58197623D01*
X161791830Y-58197638D01*
X161696498Y-58427792D01*
X161632017Y-58668438D01*
X161599501Y-58915424D01*
X161599500Y-58915441D01*
X153990500Y-58915441D01*
X153990500Y-56492648D01*
X153971935Y-56375435D01*
X153958477Y-56290468D01*
X153958477Y-56290465D01*
X153895220Y-56095782D01*
X153895220Y-56095781D01*
X153827256Y-55962394D01*
X153802287Y-55913389D01*
X153681966Y-55747781D01*
X150942219Y-53008034D01*
X150784869Y-52893713D01*
X184149500Y-52893713D01*
X184149500Y-53106286D01*
X184182753Y-53316239D01*
X184248444Y-53518414D01*
X184344951Y-53707820D01*
X184469890Y-53879786D01*
X184620213Y-54030109D01*
X184792179Y-54155048D01*
X184792181Y-54155049D01*
X184792184Y-54155051D01*
X184981588Y-54251557D01*
X185183757Y-54317246D01*
X185393713Y-54350500D01*
X185393714Y-54350500D01*
X185606286Y-54350500D01*
X185606287Y-54350500D01*
X185816243Y-54317246D01*
X186018412Y-54251557D01*
X186207816Y-54155051D01*
X186229789Y-54139086D01*
X186379786Y-54030109D01*
X186379788Y-54030106D01*
X186379792Y-54030104D01*
X186530104Y-53879792D01*
X186530106Y-53879788D01*
X186530109Y-53879786D01*
X186655048Y-53707820D01*
X186655047Y-53707820D01*
X186655051Y-53707816D01*
X186751557Y-53518412D01*
X186817246Y-53316243D01*
X186850500Y-53106287D01*
X186850500Y-52893713D01*
X186817246Y-52683757D01*
X186751557Y-52481588D01*
X186655051Y-52292184D01*
X186655049Y-52292181D01*
X186655048Y-52292179D01*
X186530109Y-52120213D01*
X186379786Y-51969890D01*
X186207820Y-51844951D01*
X186018414Y-51748444D01*
X186018413Y-51748443D01*
X186018412Y-51748443D01*
X185816243Y-51682754D01*
X185816241Y-51682753D01*
X185816240Y-51682753D01*
X185654957Y-51657208D01*
X185606287Y-51649500D01*
X185393713Y-51649500D01*
X185345042Y-51657208D01*
X185183760Y-51682753D01*
X184981585Y-51748444D01*
X184792179Y-51844951D01*
X184620213Y-51969890D01*
X184469890Y-52120213D01*
X184344951Y-52292179D01*
X184248444Y-52481585D01*
X184182753Y-52683760D01*
X184149500Y-52893713D01*
X150784869Y-52893713D01*
X150776611Y-52887713D01*
X150685414Y-52841246D01*
X150685412Y-52841245D01*
X150594223Y-52794781D01*
X150547515Y-52779604D01*
X150496876Y-52763151D01*
X150473003Y-52755394D01*
X150399535Y-52731522D01*
X150224995Y-52703878D01*
X150197352Y-52699500D01*
X137387352Y-52699500D01*
X137182648Y-52699500D01*
X137115253Y-52710174D01*
X136980463Y-52731523D01*
X136883123Y-52763150D01*
X136883123Y-52763151D01*
X136830352Y-52780297D01*
X136785774Y-52794782D01*
X136694584Y-52841245D01*
X136694585Y-52841246D01*
X136603388Y-52887713D01*
X136437778Y-53008036D01*
X133928036Y-55517778D01*
X133928031Y-55517784D01*
X133807716Y-55683384D01*
X133807706Y-55683400D01*
X133801695Y-55695197D01*
X133801630Y-55695327D01*
X133801389Y-55695801D01*
X133714780Y-55865781D01*
X133714780Y-55865782D01*
X133710466Y-55879058D01*
X133710461Y-55879069D01*
X133651522Y-56060467D01*
X133633850Y-56172048D01*
X133619500Y-56262648D01*
X133619500Y-56832142D01*
X133599815Y-56899181D01*
X133547011Y-56944936D01*
X133477853Y-56954880D01*
X133421189Y-56931409D01*
X133376088Y-56897646D01*
X133376086Y-56897645D01*
X133241379Y-56847403D01*
X133241372Y-56847401D01*
X133181844Y-56841000D01*
X132630000Y-56841000D01*
X132630000Y-57661988D01*
X132572993Y-57629075D01*
X132445826Y-57595000D01*
X132314174Y-57595000D01*
X132187007Y-57629075D01*
X132130000Y-57661988D01*
X132130000Y-56841000D01*
X131578155Y-56841000D01*
X131518627Y-56847401D01*
X131518620Y-56847403D01*
X131383913Y-56897645D01*
X131383906Y-56897649D01*
X131268812Y-56983809D01*
X131268809Y-56983812D01*
X131182649Y-57098906D01*
X131182645Y-57098913D01*
X131132403Y-57233620D01*
X131132401Y-57233627D01*
X131126000Y-57293155D01*
X131126000Y-57845000D01*
X131946988Y-57845000D01*
X131914075Y-57902007D01*
X131880000Y-58029174D01*
X131880000Y-58160826D01*
X131914075Y-58287993D01*
X131946988Y-58345000D01*
X131126000Y-58345000D01*
X131126000Y-58896844D01*
X131132401Y-58956372D01*
X131132403Y-58956379D01*
X131182645Y-59091086D01*
X131182649Y-59091093D01*
X131268809Y-59206187D01*
X131268812Y-59206190D01*
X131383906Y-59292350D01*
X131383913Y-59292354D01*
X131518620Y-59342596D01*
X131518627Y-59342598D01*
X131578155Y-59348999D01*
X131578172Y-59349000D01*
X132130000Y-59349000D01*
X132130000Y-58528012D01*
X132187007Y-58560925D01*
X132314174Y-58595000D01*
X132445826Y-58595000D01*
X132572993Y-58560925D01*
X132630000Y-58528012D01*
X132630000Y-59349000D01*
X133181828Y-59349000D01*
X133181844Y-59348999D01*
X133241372Y-59342598D01*
X133241379Y-59342596D01*
X133376086Y-59292354D01*
X133376093Y-59292350D01*
X133491187Y-59206190D01*
X133497460Y-59199918D01*
X133498381Y-59200839D01*
X133547061Y-59164396D01*
X133616752Y-59159409D01*
X133678076Y-59192892D01*
X133842166Y-59356982D01*
X134052853Y-59510055D01*
X134284892Y-59628285D01*
X134532570Y-59708761D01*
X134629026Y-59724038D01*
X134789783Y-59749500D01*
X134789788Y-59749500D01*
X135050217Y-59749500D01*
X135193110Y-59726867D01*
X135307430Y-59708761D01*
X135555108Y-59628285D01*
X135787147Y-59510055D01*
X135997834Y-59356982D01*
X136102319Y-59252497D01*
X136163642Y-59219012D01*
X136233334Y-59223996D01*
X136277681Y-59252497D01*
X136382166Y-59356982D01*
X136592853Y-59510055D01*
X136824892Y-59628285D01*
X137072570Y-59708761D01*
X137169026Y-59724038D01*
X137329783Y-59749500D01*
X137329788Y-59749500D01*
X137590217Y-59749500D01*
X137733110Y-59726867D01*
X137847430Y-59708761D01*
X138095108Y-59628285D01*
X138327147Y-59510055D01*
X138537834Y-59356982D01*
X138587819Y-59306997D01*
X138649142Y-59273512D01*
X138718834Y-59278496D01*
X138774767Y-59320368D01*
X138799184Y-59385832D01*
X138799500Y-59394678D01*
X138799500Y-101999486D01*
X138829059Y-102186118D01*
X138887454Y-102365836D01*
X138973240Y-102534199D01*
X139084310Y-102687074D01*
X144314310Y-107917073D01*
X144447927Y-108050690D01*
X144600801Y-108161760D01*
X144661224Y-108192547D01*
X144769163Y-108247545D01*
X144769165Y-108247545D01*
X144769168Y-108247547D01*
X144865497Y-108278846D01*
X144948881Y-108305940D01*
X145135514Y-108335500D01*
X145135519Y-108335500D01*
X148259932Y-108335500D01*
X148326971Y-108355185D01*
X148372726Y-108407989D01*
X148382670Y-108477147D01*
X148358307Y-108534985D01*
X148352639Y-108542373D01*
X148231392Y-108700382D01*
X148116657Y-108899109D01*
X148116650Y-108899123D01*
X148028842Y-109111112D01*
X147969453Y-109332759D01*
X147969451Y-109332770D01*
X147939500Y-109560258D01*
X147939500Y-109747084D01*
X147919815Y-109814123D01*
X147903181Y-109834765D01*
X146528147Y-111209798D01*
X146528145Y-111209800D01*
X146493992Y-111256810D01*
X146463974Y-111298127D01*
X146442840Y-111327215D01*
X146421706Y-111356303D01*
X146339490Y-111517658D01*
X146339489Y-111517661D01*
X146283531Y-111689887D01*
X146255201Y-111868753D01*
X146255201Y-112054954D01*
X146255202Y-112054979D01*
X146255202Y-130310740D01*
X146255201Y-130310755D01*
X146255201Y-130496246D01*
X146276473Y-130630548D01*
X146276473Y-130630549D01*
X146283531Y-130675112D01*
X146339489Y-130847338D01*
X146339490Y-130847341D01*
X146421708Y-131008699D01*
X146528142Y-131155195D01*
X146528146Y-131155199D01*
X146528149Y-131155203D01*
X146656201Y-131283255D01*
X146660531Y-131287585D01*
X146660542Y-131287595D01*
X149406472Y-134033524D01*
X149406499Y-134033553D01*
X149409603Y-134036657D01*
X149409604Y-134036658D01*
X149537656Y-134164710D01*
X149537659Y-134164712D01*
X149537663Y-134164716D01*
X149688104Y-134274017D01*
X149687055Y-134275459D01*
X149728787Y-134321587D01*
X149740207Y-134390517D01*
X149712549Y-134454679D01*
X149654592Y-134493703D01*
X149617120Y-134499500D01*
X121624500Y-134499500D01*
X121557461Y-134479815D01*
X121511706Y-134427011D01*
X121500500Y-134375500D01*
X121500500Y-130893713D01*
X123649500Y-130893713D01*
X123649500Y-131106286D01*
X123682753Y-131316239D01*
X123748444Y-131518414D01*
X123844951Y-131707820D01*
X123969890Y-131879786D01*
X124120213Y-132030109D01*
X124292179Y-132155048D01*
X124292181Y-132155049D01*
X124292184Y-132155051D01*
X124481588Y-132251557D01*
X124683757Y-132317246D01*
X124893713Y-132350500D01*
X124893714Y-132350500D01*
X125106286Y-132350500D01*
X125106287Y-132350500D01*
X125316243Y-132317246D01*
X125518412Y-132251557D01*
X125707816Y-132155051D01*
X125783123Y-132100338D01*
X125879786Y-132030109D01*
X125879788Y-132030106D01*
X125879792Y-132030104D01*
X126030104Y-131879792D01*
X126030106Y-131879788D01*
X126030109Y-131879786D01*
X126155048Y-131707820D01*
X126155047Y-131707820D01*
X126155051Y-131707816D01*
X126251557Y-131518412D01*
X126317246Y-131316243D01*
X126350500Y-131106287D01*
X126350500Y-130893713D01*
X126317246Y-130683757D01*
X126251557Y-130481588D01*
X126155051Y-130292184D01*
X126155049Y-130292181D01*
X126155048Y-130292179D01*
X126030109Y-130120213D01*
X125879786Y-129969890D01*
X125707820Y-129844951D01*
X125518414Y-129748444D01*
X125518413Y-129748443D01*
X125518412Y-129748443D01*
X125316243Y-129682754D01*
X125316241Y-129682753D01*
X125316240Y-129682753D01*
X125154957Y-129657208D01*
X125106287Y-129649500D01*
X124893713Y-129649500D01*
X124845042Y-129657208D01*
X124683760Y-129682753D01*
X124481585Y-129748444D01*
X124292179Y-129844951D01*
X124120213Y-129969890D01*
X123969890Y-130120213D01*
X123844951Y-130292179D01*
X123748444Y-130481585D01*
X123682753Y-130683760D01*
X123649500Y-130893713D01*
X121500500Y-130893713D01*
X121500500Y-86893713D01*
X123649500Y-86893713D01*
X123649500Y-87106286D01*
X123682753Y-87316239D01*
X123748444Y-87518414D01*
X123844951Y-87707820D01*
X123969890Y-87879786D01*
X124120213Y-88030109D01*
X124292179Y-88155048D01*
X124292181Y-88155049D01*
X124292184Y-88155051D01*
X124481588Y-88251557D01*
X124683757Y-88317246D01*
X124893713Y-88350500D01*
X124893714Y-88350500D01*
X125106286Y-88350500D01*
X125106287Y-88350500D01*
X125316243Y-88317246D01*
X125518412Y-88251557D01*
X125707816Y-88155051D01*
X125781361Y-88101618D01*
X125879786Y-88030109D01*
X125879788Y-88030106D01*
X125879792Y-88030104D01*
X126030104Y-87879792D01*
X126030106Y-87879788D01*
X126030109Y-87879786D01*
X126155048Y-87707820D01*
X126155047Y-87707820D01*
X126155051Y-87707816D01*
X126251557Y-87518412D01*
X126317246Y-87316243D01*
X126350500Y-87106287D01*
X126350500Y-86893713D01*
X126317246Y-86683757D01*
X126251557Y-86481588D01*
X126155051Y-86292184D01*
X126155049Y-86292181D01*
X126155048Y-86292179D01*
X126030109Y-86120213D01*
X125879786Y-85969890D01*
X125707820Y-85844951D01*
X125518414Y-85748444D01*
X125518413Y-85748443D01*
X125518412Y-85748443D01*
X125316243Y-85682754D01*
X125316241Y-85682753D01*
X125316240Y-85682753D01*
X125154957Y-85657208D01*
X125106287Y-85649500D01*
X124893713Y-85649500D01*
X124845042Y-85657208D01*
X124683760Y-85682753D01*
X124481585Y-85748444D01*
X124292179Y-85844951D01*
X124120213Y-85969890D01*
X123969890Y-86120213D01*
X123844951Y-86292179D01*
X123748444Y-86481585D01*
X123682753Y-86683760D01*
X123649500Y-86893713D01*
X121500500Y-86893713D01*
X121500500Y-80460186D01*
X122789500Y-80460186D01*
X122789500Y-80729813D01*
X122819686Y-80997719D01*
X122819688Y-80997731D01*
X122879684Y-81260594D01*
X122879687Y-81260602D01*
X122968734Y-81515082D01*
X123085714Y-81757994D01*
X123085716Y-81757997D01*
X123229162Y-81986289D01*
X123397266Y-82197085D01*
X123587915Y-82387734D01*
X123798711Y-82555838D01*
X124027003Y-82699284D01*
X124269921Y-82816267D01*
X124461049Y-82883145D01*
X124524397Y-82905312D01*
X124524405Y-82905315D01*
X124524408Y-82905315D01*
X124524409Y-82905316D01*
X124787268Y-82965312D01*
X125055187Y-82995499D01*
X125055188Y-82995500D01*
X125055191Y-82995500D01*
X125324812Y-82995500D01*
X125324812Y-82995499D01*
X125592732Y-82965312D01*
X125855591Y-82905316D01*
X126110079Y-82816267D01*
X126352997Y-82699284D01*
X126581289Y-82555838D01*
X126792085Y-82387734D01*
X126982734Y-82197085D01*
X127150838Y-81986289D01*
X127294284Y-81757997D01*
X127411267Y-81515079D01*
X127500316Y-81260591D01*
X127560312Y-80997732D01*
X127590500Y-80729809D01*
X127590500Y-80460191D01*
X127560312Y-80192268D01*
X127500316Y-79929409D01*
X127411267Y-79674921D01*
X127294284Y-79432003D01*
X127150838Y-79203711D01*
X126982734Y-78992915D01*
X126792085Y-78802266D01*
X126581289Y-78634162D01*
X126352997Y-78490716D01*
X126352994Y-78490714D01*
X126110082Y-78373734D01*
X125855602Y-78284687D01*
X125855594Y-78284684D01*
X125658446Y-78239687D01*
X125592732Y-78224688D01*
X125592728Y-78224687D01*
X125592719Y-78224686D01*
X125324813Y-78194500D01*
X125324809Y-78194500D01*
X125055191Y-78194500D01*
X125055186Y-78194500D01*
X124787280Y-78224686D01*
X124787268Y-78224688D01*
X124524405Y-78284684D01*
X124524397Y-78284687D01*
X124269917Y-78373734D01*
X124027005Y-78490714D01*
X123798712Y-78634161D01*
X123587915Y-78802265D01*
X123397265Y-78992915D01*
X123229161Y-79203712D01*
X123085714Y-79432005D01*
X122968734Y-79674917D01*
X122879687Y-79929397D01*
X122879684Y-79929405D01*
X122819688Y-80192268D01*
X122819686Y-80192280D01*
X122789500Y-80460186D01*
X121500500Y-80460186D01*
X121500500Y-58460186D01*
X122789500Y-58460186D01*
X122789500Y-58729813D01*
X122819686Y-58997719D01*
X122819688Y-58997731D01*
X122879684Y-59260594D01*
X122879687Y-59260602D01*
X122968734Y-59515082D01*
X123085714Y-59757994D01*
X123085716Y-59757997D01*
X123229162Y-59986289D01*
X123397266Y-60197085D01*
X123587915Y-60387734D01*
X123798711Y-60555838D01*
X124027003Y-60699284D01*
X124269921Y-60816267D01*
X124461049Y-60883145D01*
X124524397Y-60905312D01*
X124524405Y-60905315D01*
X124524408Y-60905315D01*
X124524409Y-60905316D01*
X124787268Y-60965312D01*
X125055187Y-60995499D01*
X125055188Y-60995500D01*
X125055191Y-60995500D01*
X125324812Y-60995500D01*
X125324812Y-60995499D01*
X125592732Y-60965312D01*
X125855591Y-60905316D01*
X126110079Y-60816267D01*
X126352997Y-60699284D01*
X126581289Y-60555838D01*
X126792085Y-60387734D01*
X126982734Y-60197085D01*
X127150838Y-59986289D01*
X127294284Y-59757997D01*
X127411267Y-59515079D01*
X127500316Y-59260591D01*
X127560312Y-58997732D01*
X127590500Y-58729809D01*
X127590500Y-58460191D01*
X127590499Y-58460186D01*
X127590499Y-58460184D01*
X127573299Y-58307521D01*
X127563785Y-58223096D01*
X127560312Y-58192268D01*
X127500316Y-57929409D01*
X127411267Y-57674921D01*
X127294284Y-57432003D01*
X127237967Y-57342376D01*
X127187724Y-57262415D01*
X127150838Y-57203711D01*
X126982734Y-56992915D01*
X126792085Y-56802266D01*
X126581289Y-56634162D01*
X126352997Y-56490716D01*
X126352994Y-56490714D01*
X126110082Y-56373734D01*
X125855602Y-56284687D01*
X125855594Y-56284684D01*
X125658446Y-56239687D01*
X125592732Y-56224688D01*
X125592728Y-56224687D01*
X125592719Y-56224686D01*
X125324813Y-56194500D01*
X125324809Y-56194500D01*
X125055191Y-56194500D01*
X125055186Y-56194500D01*
X124787280Y-56224686D01*
X124787268Y-56224688D01*
X124524405Y-56284684D01*
X124524397Y-56284687D01*
X124269917Y-56373734D01*
X124027005Y-56490714D01*
X123798712Y-56634161D01*
X123587915Y-56802265D01*
X123397265Y-56992915D01*
X123229161Y-57203712D01*
X123085714Y-57432005D01*
X122968734Y-57674917D01*
X122879687Y-57929397D01*
X122879684Y-57929405D01*
X122819688Y-58192268D01*
X122819686Y-58192280D01*
X122789500Y-58460186D01*
X121500500Y-58460186D01*
X121500500Y-52893713D01*
X123149500Y-52893713D01*
X123149500Y-53106286D01*
X123182753Y-53316239D01*
X123248444Y-53518414D01*
X123344951Y-53707820D01*
X123469890Y-53879786D01*
X123620213Y-54030109D01*
X123792179Y-54155048D01*
X123792181Y-54155049D01*
X123792184Y-54155051D01*
X123981588Y-54251557D01*
X124183757Y-54317246D01*
X124393713Y-54350500D01*
X124393714Y-54350500D01*
X124606286Y-54350500D01*
X124606287Y-54350500D01*
X124816243Y-54317246D01*
X125018412Y-54251557D01*
X125207816Y-54155051D01*
X125229789Y-54139086D01*
X125379786Y-54030109D01*
X125379788Y-54030106D01*
X125379792Y-54030104D01*
X125530104Y-53879792D01*
X125530106Y-53879788D01*
X125530109Y-53879786D01*
X125655048Y-53707820D01*
X125655047Y-53707820D01*
X125655051Y-53707816D01*
X125751557Y-53518412D01*
X125817246Y-53316243D01*
X125850500Y-53106287D01*
X125850500Y-52893713D01*
X125817246Y-52683757D01*
X125751557Y-52481588D01*
X125655051Y-52292184D01*
X125655049Y-52292181D01*
X125655048Y-52292179D01*
X125530109Y-52120213D01*
X125379786Y-51969890D01*
X125207820Y-51844951D01*
X125018414Y-51748444D01*
X125018413Y-51748443D01*
X125018412Y-51748443D01*
X124816243Y-51682754D01*
X124816241Y-51682753D01*
X124816240Y-51682753D01*
X124654957Y-51657208D01*
X124606287Y-51649500D01*
X124393713Y-51649500D01*
X124345042Y-51657208D01*
X124183760Y-51682753D01*
X123981585Y-51748444D01*
X123792179Y-51844951D01*
X123620213Y-51969890D01*
X123469890Y-52120213D01*
X123344951Y-52292179D01*
X123248444Y-52481585D01*
X123182753Y-52683760D01*
X123149500Y-52893713D01*
X121500500Y-52893713D01*
X121500500Y-51124500D01*
X121520185Y-51057461D01*
X121572989Y-51011706D01*
X121624500Y-51000500D01*
X188375500Y-51000500D01*
X188442539Y-51020185D01*
G37*
%TD.AperFunction*%
%TA.AperFunction,Conductor*%
G36*
X155219334Y-92347363D02*
G01*
X155275267Y-92389235D01*
X155299684Y-92454699D01*
X155300000Y-92463545D01*
X155300000Y-92578052D01*
X155336934Y-92811247D01*
X155409897Y-93035802D01*
X155517087Y-93246174D01*
X155605953Y-93368488D01*
X155629433Y-93434294D01*
X155613608Y-93502348D01*
X155581122Y-93539748D01*
X155544228Y-93568058D01*
X155544218Y-93568066D01*
X155368066Y-93744218D01*
X155368060Y-93744225D01*
X155216400Y-93941873D01*
X155091837Y-94157623D01*
X155091830Y-94157638D01*
X154996498Y-94387792D01*
X154932017Y-94628438D01*
X154899501Y-94875424D01*
X154899500Y-94875435D01*
X154899500Y-95124558D01*
X154899501Y-95124575D01*
X154932017Y-95371561D01*
X154996498Y-95612207D01*
X155091830Y-95842361D01*
X155091837Y-95842376D01*
X155216400Y-96058126D01*
X155321053Y-96194514D01*
X155346247Y-96259683D01*
X155332208Y-96328128D01*
X155321053Y-96345486D01*
X155216400Y-96481873D01*
X155091837Y-96697623D01*
X155091830Y-96697638D01*
X154996498Y-96927792D01*
X154932017Y-97168438D01*
X154899501Y-97415424D01*
X154899500Y-97415441D01*
X154899500Y-97664558D01*
X154899501Y-97664575D01*
X154932017Y-97911561D01*
X154996498Y-98152207D01*
X155091830Y-98382361D01*
X155091837Y-98382376D01*
X155216400Y-98598126D01*
X155321053Y-98734514D01*
X155346247Y-98799683D01*
X155332208Y-98868128D01*
X155321053Y-98885486D01*
X155216400Y-99021873D01*
X155091837Y-99237623D01*
X155091830Y-99237638D01*
X154996498Y-99467792D01*
X154932017Y-99708438D01*
X154899501Y-99955424D01*
X154899500Y-99955441D01*
X154899500Y-100204558D01*
X154899501Y-100204575D01*
X154932017Y-100451561D01*
X154996498Y-100692207D01*
X155091830Y-100922361D01*
X155091837Y-100922376D01*
X155216400Y-101138126D01*
X155321053Y-101274514D01*
X155346247Y-101339683D01*
X155332208Y-101408128D01*
X155321053Y-101425486D01*
X155216400Y-101561873D01*
X155091837Y-101777623D01*
X155091830Y-101777638D01*
X154996498Y-102007792D01*
X154932017Y-102248438D01*
X154899501Y-102495424D01*
X154899500Y-102495441D01*
X154899500Y-102744558D01*
X154899501Y-102744575D01*
X154932017Y-102991561D01*
X154996498Y-103232207D01*
X155091830Y-103462361D01*
X155091837Y-103462376D01*
X155216400Y-103678126D01*
X155321053Y-103814514D01*
X155346247Y-103879683D01*
X155332208Y-103948128D01*
X155321053Y-103965486D01*
X155216400Y-104101873D01*
X155091837Y-104317623D01*
X155091830Y-104317638D01*
X154996498Y-104547792D01*
X154932017Y-104788438D01*
X154899501Y-105035424D01*
X154899500Y-105035441D01*
X154899500Y-105284558D01*
X154899501Y-105284575D01*
X154932017Y-105531561D01*
X154996498Y-105772207D01*
X155091830Y-106002361D01*
X155091837Y-106002376D01*
X155216400Y-106218126D01*
X155321053Y-106354514D01*
X155346247Y-106419683D01*
X155332208Y-106488128D01*
X155321053Y-106505486D01*
X155216400Y-106641873D01*
X155091837Y-106857623D01*
X155091830Y-106857638D01*
X154996498Y-107087792D01*
X154932017Y-107328438D01*
X154899501Y-107575424D01*
X154899500Y-107575441D01*
X154899500Y-107824558D01*
X154899501Y-107824575D01*
X154929269Y-108050690D01*
X154932018Y-108071565D01*
X154956186Y-108161760D01*
X154996498Y-108312207D01*
X155091830Y-108542361D01*
X155091837Y-108542376D01*
X155216400Y-108758126D01*
X155321053Y-108894514D01*
X155346247Y-108959683D01*
X155332208Y-109028128D01*
X155321053Y-109045486D01*
X155216400Y-109181873D01*
X155091837Y-109397623D01*
X155091830Y-109397638D01*
X154996498Y-109627792D01*
X154932017Y-109868438D01*
X154927506Y-109902704D01*
X154899500Y-110115435D01*
X154899500Y-110364565D01*
X154932018Y-110611565D01*
X154967082Y-110742425D01*
X154996498Y-110852207D01*
X155091830Y-111082361D01*
X155091837Y-111082376D01*
X155216400Y-111298126D01*
X155321053Y-111434514D01*
X155346247Y-111499683D01*
X155332208Y-111568128D01*
X155321053Y-111585486D01*
X155216400Y-111721873D01*
X155091837Y-111937623D01*
X155091830Y-111937638D01*
X154996498Y-112167792D01*
X154932017Y-112408438D01*
X154899501Y-112655424D01*
X154899500Y-112655441D01*
X154899500Y-112904558D01*
X154899501Y-112904575D01*
X154932017Y-113151561D01*
X154996498Y-113392207D01*
X155091830Y-113622361D01*
X155091837Y-113622376D01*
X155216400Y-113838126D01*
X155321053Y-113974514D01*
X155346247Y-114039683D01*
X155332208Y-114108128D01*
X155321053Y-114125486D01*
X155216400Y-114261873D01*
X155091837Y-114477623D01*
X155091830Y-114477638D01*
X154996498Y-114707792D01*
X154932017Y-114948438D01*
X154899501Y-115195424D01*
X154899500Y-115195441D01*
X154899500Y-115444558D01*
X154899501Y-115444575D01*
X154932017Y-115691561D01*
X154996498Y-115932207D01*
X155091830Y-116162361D01*
X155091837Y-116162376D01*
X155216400Y-116378126D01*
X155321053Y-116514514D01*
X155346247Y-116579683D01*
X155332208Y-116648128D01*
X155321053Y-116665486D01*
X155216400Y-116801873D01*
X155091837Y-117017623D01*
X155091830Y-117017638D01*
X154996498Y-117247792D01*
X154932017Y-117488438D01*
X154899501Y-117735424D01*
X154899500Y-117735441D01*
X154899500Y-117984558D01*
X154899501Y-117984575D01*
X154932017Y-118231561D01*
X154996498Y-118472207D01*
X155091830Y-118702361D01*
X155091837Y-118702376D01*
X155216400Y-118918126D01*
X155321053Y-119054514D01*
X155346247Y-119119683D01*
X155332208Y-119188128D01*
X155321053Y-119205486D01*
X155216400Y-119341873D01*
X155091837Y-119557623D01*
X155091830Y-119557638D01*
X154996498Y-119787792D01*
X154932017Y-120028438D01*
X154918339Y-120132336D01*
X154890072Y-120196232D01*
X154831748Y-120234703D01*
X154761883Y-120235534D01*
X154707719Y-120203831D01*
X154618853Y-120114965D01*
X154585368Y-120053642D01*
X154582534Y-120027284D01*
X154582534Y-108192547D01*
X154552974Y-108005915D01*
X154494579Y-107826197D01*
X154408793Y-107657834D01*
X154297724Y-107504961D01*
X154164107Y-107371344D01*
X151476819Y-104684055D01*
X151443334Y-104622732D01*
X151440500Y-104596374D01*
X151440500Y-104480272D01*
X151440499Y-104480258D01*
X151419089Y-104317638D01*
X151410548Y-104252762D01*
X151351158Y-104031113D01*
X151292707Y-103890000D01*
X151263349Y-103819123D01*
X151263346Y-103819117D01*
X151263344Y-103819112D01*
X151148611Y-103620388D01*
X151148608Y-103620385D01*
X151148607Y-103620382D01*
X151008918Y-103438338D01*
X151008911Y-103438330D01*
X150846670Y-103276089D01*
X150846661Y-103276081D01*
X150664617Y-103136392D01*
X150465890Y-103021657D01*
X150465876Y-103021650D01*
X150253887Y-102933842D01*
X150253883Y-102933841D01*
X150233250Y-102928312D01*
X150177665Y-102896219D01*
X149819408Y-102537962D01*
X149882993Y-102520925D01*
X149997007Y-102455099D01*
X150090099Y-102362007D01*
X150155925Y-102247993D01*
X150172962Y-102184409D01*
X150805270Y-102816717D01*
X150805270Y-102816716D01*
X150844622Y-102762554D01*
X150941095Y-102573217D01*
X151006757Y-102371130D01*
X151006757Y-102371127D01*
X151040000Y-102161246D01*
X151040000Y-101948753D01*
X151006757Y-101738872D01*
X151006757Y-101738869D01*
X150941095Y-101536782D01*
X150849543Y-101357103D01*
X150836647Y-101288434D01*
X150862923Y-101223694D01*
X150903734Y-101190323D01*
X151033146Y-101124385D01*
X151033147Y-101124383D01*
X151033149Y-101124383D01*
X151180257Y-101005257D01*
X151299383Y-100858149D01*
X151303128Y-100850800D01*
X151319835Y-100818008D01*
X151385320Y-100689488D01*
X151434312Y-100506645D01*
X151440500Y-100428021D01*
X151440499Y-98601980D01*
X151434312Y-98523355D01*
X151385320Y-98340512D01*
X151341938Y-98255371D01*
X151299385Y-98171853D01*
X151180256Y-98024742D01*
X151036463Y-97908299D01*
X150996752Y-97850812D01*
X150990500Y-97811934D01*
X150990500Y-96525046D01*
X151010185Y-96458007D01*
X151026814Y-96437370D01*
X155088321Y-92375862D01*
X155149642Y-92342379D01*
X155219334Y-92347363D01*
G37*
%TD.AperFunction*%
%TD*%
M02*
