M48
; DRILL file {KiCad 9.0.2} date 2025-07-16T22:08:19-0500
; FORMAT={-:-/ absolute / metric / decimal}
; #@! TF.CreationDate,2025-07-16T22:08:19-05:00
; #@! TF.GenerationSoftware,Kicad,Pcbnew,9.0.2
; #@! TF.FileFunction,Plated,1,2,PTH
FMAT,2
METRIC
; #@! TA.AperFunction,Plated,PTH,ComponentDrill
T1C1.000
; #@! TA.AperFunction,Plated,PTH,ComponentDrill
T2C1.020
; #@! TA.AperFunction,Plated,PTH,ComponentDrill
T3C2.000
%
G90
G05
T1
X132.38Y-58.095
X134.92Y-58.095
X137.46Y-58.095
X140.0Y-58.095
X149.69Y-99.515
X149.69Y-102.055
X149.69Y-104.595
X149.69Y-107.135
X149.69Y-109.675
X163.5Y-56.5
X163.5Y-59.04
X163.5Y-67.96
X163.5Y-70.5
X186.5Y-56.5
X186.5Y-70.5
T2
X156.8Y-89.92
X156.8Y-92.46
X156.8Y-95.0
X156.8Y-97.54
X156.8Y-100.08
X156.8Y-102.62
X156.8Y-105.16
X156.8Y-107.7
X156.8Y-110.24
X156.8Y-112.78
X156.8Y-115.32
X156.8Y-117.86
X156.8Y-120.4
X156.8Y-122.94
X156.8Y-125.48
X182.2Y-89.92
X182.2Y-92.46
X182.2Y-95.0
X182.2Y-97.54
X182.2Y-100.08
X182.2Y-102.62
X182.2Y-105.16
X182.2Y-107.7
X182.2Y-110.24
X182.2Y-112.78
X182.2Y-115.32
X182.2Y-117.86
X182.2Y-120.4
X182.2Y-122.94
X182.2Y-125.48
T3
X125.19Y-58.595
X125.19Y-80.595
X147.19Y-58.595
X147.19Y-80.595
M30
